<mxfile>
    <diagram id="ohVmcRbP5ZEXkzlCY35F" name="grpc_jina">
        <mxGraphModel dx="1026" dy="890" grid="1" gridSize="10" guides="1" tooltips="1" connect="1" arrows="1" fold="1" page="1" pageScale="1" pageWidth="850" pageHeight="1100" math="0" shadow="0">
            <root>
                <mxCell id="YJelYly-FgUSJej3EUSM-0"/>
                <mxCell id="YJelYly-FgUSJej3EUSM-1" parent="YJelYly-FgUSJej3EUSM-0"/>
                <mxCell id="12" value="" style="rounded=0;whiteSpace=wrap;html=1;fillColor=#647687;strokeColor=#314354;fontColor=#ffffff;" parent="YJelYly-FgUSJej3EUSM-1" vertex="1">
                    <mxGeometry x="120" y="280" width="480" height="380" as="geometry"/>
                </mxCell>
                <mxCell id="YJelYly-FgUSJej3EUSM-6" style="edgeStyle=orthogonalEdgeStyle;rounded=0;orthogonalLoop=1;jettySize=auto;html=1;exitX=0.5;exitY=1;exitDx=0;exitDy=0;entryX=0.5;entryY=0;entryDx=0;entryDy=0;" parent="YJelYly-FgUSJej3EUSM-1" source="YJelYly-FgUSJej3EUSM-2" target="YJelYly-FgUSJej3EUSM-3" edge="1">
                    <mxGeometry relative="1" as="geometry"/>
                </mxCell>
                <mxCell id="YJelYly-FgUSJej3EUSM-2" value="grpcServer" style="rounded=0;whiteSpace=wrap;html=1;" parent="YJelYly-FgUSJej3EUSM-1" vertex="1">
                    <mxGeometry x="300" y="170" width="120" height="60" as="geometry"/>
                </mxCell>
                <mxCell id="3" style="edgeStyle=orthogonalEdgeStyle;rounded=0;orthogonalLoop=1;jettySize=auto;html=1;entryX=0.383;entryY=-0.033;entryDx=0;entryDy=0;entryPerimeter=0;" parent="YJelYly-FgUSJej3EUSM-1" source="YJelYly-FgUSJej3EUSM-3" target="zMi2RWC_D5SmOm9ZdKYv-15" edge="1">
                    <mxGeometry relative="1" as="geometry"/>
                </mxCell>
                <mxCell id="4" style="edgeStyle=orthogonalEdgeStyle;rounded=0;orthogonalLoop=1;jettySize=auto;html=1;exitX=0.5;exitY=1;exitDx=0;exitDy=0;entryX=0.5;entryY=0;entryDx=0;entryDy=0;" parent="YJelYly-FgUSJej3EUSM-1" source="YJelYly-FgUSJej3EUSM-3" target="zMi2RWC_D5SmOm9ZdKYv-14" edge="1">
                    <mxGeometry relative="1" as="geometry"/>
                </mxCell>
                <mxCell id="6" style="edgeStyle=orthogonalEdgeStyle;rounded=0;orthogonalLoop=1;jettySize=auto;html=1;exitX=0.5;exitY=1;exitDx=0;exitDy=0;entryX=0.5;entryY=0;entryDx=0;entryDy=0;" parent="YJelYly-FgUSJej3EUSM-1" source="YJelYly-FgUSJej3EUSM-3" target="zMi2RWC_D5SmOm9ZdKYv-3" edge="1">
                    <mxGeometry relative="1" as="geometry"/>
                </mxCell>
                <mxCell id="YJelYly-FgUSJej3EUSM-3" value="HeadPea" style="rounded=0;whiteSpace=wrap;html=1;" parent="YJelYly-FgUSJej3EUSM-1" vertex="1">
                    <mxGeometry x="300" y="300" width="120" height="60" as="geometry"/>
                </mxCell>
                <mxCell id="YJelYly-FgUSJej3EUSM-4" value="BodyPea" style="rounded=0;whiteSpace=wrap;html=1;" parent="YJelYly-FgUSJej3EUSM-1" vertex="1">
                    <mxGeometry x="150" y="450" width="120" height="60" as="geometry"/>
                </mxCell>
                <mxCell id="YJelYly-FgUSJej3EUSM-7" value="&lt;meta charset=&quot;utf-8&quot;&gt;&lt;div style=&quot;color: rgb(212, 212, 212); background-color: rgb(30, 30, 30); font-family: &amp;quot;droid sans mono&amp;quot;, monospace, monospace, &amp;quot;droid sans fallback&amp;quot;; font-weight: normal; font-size: 14px; line-height: 19px;&quot;&gt;&lt;div&gt;&lt;span style=&quot;color: #ce9178&quot;&gt;1515&lt;/span&gt;&lt;/div&gt;&lt;/div&gt;" style="text;whiteSpace=wrap;html=1;" parent="YJelYly-FgUSJej3EUSM-1" vertex="1">
                    <mxGeometry x="340" y="200" width="60" height="30" as="geometry"/>
                </mxCell>
                <mxCell id="YJelYly-FgUSJej3EUSM-8" value="&lt;meta charset=&quot;utf-8&quot;&gt;&lt;div style=&quot;color: rgb(212, 212, 212); background-color: rgb(30, 30, 30); font-family: &amp;quot;droid sans mono&amp;quot;, monospace, monospace, &amp;quot;droid sans fallback&amp;quot;; font-weight: normal; font-size: 14px; line-height: 19px;&quot;&gt;&lt;div&gt;&lt;span style=&quot;color: #ce9178&quot;&gt;2626&lt;/span&gt;&lt;/div&gt;&lt;/div&gt;" style="text;whiteSpace=wrap;html=1;" parent="YJelYly-FgUSJej3EUSM-1" vertex="1">
                    <mxGeometry x="335" y="330" width="60" height="30" as="geometry"/>
                </mxCell>
                <mxCell id="17" style="edgeStyle=orthogonalEdgeStyle;rounded=0;orthogonalLoop=1;jettySize=auto;html=1;exitX=0.25;exitY=1;exitDx=0;exitDy=0;" parent="YJelYly-FgUSJej3EUSM-1" source="zMi2RWC_D5SmOm9ZdKYv-1" edge="1">
                    <mxGeometry relative="1" as="geometry">
                        <mxPoint x="360" y="590" as="targetPoint"/>
                    </mxGeometry>
                </mxCell>
                <mxCell id="zMi2RWC_D5SmOm9ZdKYv-1" value="&lt;meta charset=&quot;utf-8&quot;&gt;&lt;div style=&quot;color: rgb(212, 212, 212); background-color: rgb(30, 30, 30); font-family: &amp;quot;droid sans mono&amp;quot;, monospace, monospace, &amp;quot;droid sans fallback&amp;quot;; font-weight: normal; font-size: 14px; line-height: 19px;&quot;&gt;&lt;div&gt;&lt;span style=&quot;color: #ce9178&quot;&gt;3737&lt;/span&gt;&lt;/div&gt;&lt;/div&gt;" style="text;whiteSpace=wrap;html=1;" parent="YJelYly-FgUSJej3EUSM-1" vertex="1">
                    <mxGeometry x="190" y="480" width="60" height="30" as="geometry"/>
                </mxCell>
                <mxCell id="zMi2RWC_D5SmOm9ZdKYv-2" value="BodyPea" style="rounded=0;whiteSpace=wrap;html=1;" parent="YJelYly-FgUSJej3EUSM-1" vertex="1">
                    <mxGeometry x="300" y="450" width="120" height="60" as="geometry"/>
                </mxCell>
                <mxCell id="zMi2RWC_D5SmOm9ZdKYv-3" value="BodyPea" style="rounded=0;whiteSpace=wrap;html=1;" parent="YJelYly-FgUSJej3EUSM-1" vertex="1">
                    <mxGeometry x="450" y="450" width="120" height="60" as="geometry"/>
                </mxCell>
                <mxCell id="20" style="edgeStyle=orthogonalEdgeStyle;rounded=0;orthogonalLoop=1;jettySize=auto;html=1;exitX=0.25;exitY=1;exitDx=0;exitDy=0;" parent="YJelYly-FgUSJej3EUSM-1" source="zMi2RWC_D5SmOm9ZdKYv-8" edge="1">
                    <mxGeometry relative="1" as="geometry">
                        <mxPoint x="360" y="590" as="targetPoint"/>
                        <Array as="points">
                            <mxPoint x="360" y="510"/>
                        </Array>
                    </mxGeometry>
                </mxCell>
                <mxCell id="zMi2RWC_D5SmOm9ZdKYv-8" value="&lt;meta charset=&quot;utf-8&quot;&gt;&lt;div style=&quot;color: rgb(212, 212, 212); background-color: rgb(30, 30, 30); font-family: &amp;quot;droid sans mono&amp;quot;, monospace, monospace, &amp;quot;droid sans fallback&amp;quot;; font-weight: normal; font-size: 14px; line-height: 19px;&quot;&gt;&lt;div&gt;&lt;span style=&quot;color: #ce9178&quot;&gt;3737&lt;/span&gt;&lt;/div&gt;&lt;/div&gt;" style="text;whiteSpace=wrap;html=1;" parent="YJelYly-FgUSJej3EUSM-1" vertex="1">
                    <mxGeometry x="340" y="480" width="60" height="30" as="geometry"/>
                </mxCell>
                <mxCell id="18" style="edgeStyle=orthogonalEdgeStyle;rounded=0;orthogonalLoop=1;jettySize=auto;html=1;exitX=0.25;exitY=1;exitDx=0;exitDy=0;" parent="YJelYly-FgUSJej3EUSM-1" source="zMi2RWC_D5SmOm9ZdKYv-9" edge="1">
                    <mxGeometry relative="1" as="geometry">
                        <mxPoint x="360" y="590" as="targetPoint"/>
                    </mxGeometry>
                </mxCell>
                <mxCell id="zMi2RWC_D5SmOm9ZdKYv-9" value="&lt;meta charset=&quot;utf-8&quot;&gt;&lt;div style=&quot;color: rgb(212, 212, 212); background-color: rgb(30, 30, 30); font-family: &amp;quot;droid sans mono&amp;quot;, monospace, monospace, &amp;quot;droid sans fallback&amp;quot;; font-weight: normal; font-size: 14px; line-height: 19px;&quot;&gt;&lt;div&gt;&lt;span style=&quot;color: #ce9178&quot;&gt;3737&lt;/span&gt;&lt;/div&gt;&lt;/div&gt;" style="text;whiteSpace=wrap;html=1;" parent="YJelYly-FgUSJej3EUSM-1" vertex="1">
                    <mxGeometry x="490" y="480" width="60" height="30" as="geometry"/>
                </mxCell>
                <mxCell id="zMi2RWC_D5SmOm9ZdKYv-10" value="&lt;meta charset=&quot;utf-8&quot;&gt;&lt;div style=&quot;color: rgb(212, 212, 212); background-color: rgb(30, 30, 30); font-family: &amp;quot;droid sans mono&amp;quot;, monospace, monospace, &amp;quot;droid sans fallback&amp;quot;; font-weight: normal; font-size: 14px; line-height: 19px;&quot;&gt;&lt;div&gt;&lt;span style=&quot;color: #ce9178&quot;&gt;3737&lt;/span&gt;&lt;/div&gt;&lt;/div&gt;" style="text;whiteSpace=wrap;html=1;" parent="YJelYly-FgUSJej3EUSM-1" vertex="1">
                    <mxGeometry x="293" y="185" width="60" height="30" as="geometry"/>
                </mxCell>
                <mxCell id="2" style="edgeStyle=orthogonalEdgeStyle;rounded=0;orthogonalLoop=1;jettySize=auto;html=1;exitX=0.25;exitY=1;exitDx=0;exitDy=0;entryX=0.25;entryY=0;entryDx=0;entryDy=0;" parent="YJelYly-FgUSJej3EUSM-1" source="zMi2RWC_D5SmOm9ZdKYv-12" target="zMi2RWC_D5SmOm9ZdKYv-17" edge="1">
                    <mxGeometry relative="1" as="geometry">
                        <Array as="points">
                            <mxPoint x="358" y="130"/>
                            <mxPoint x="358" y="150"/>
                        </Array>
                    </mxGeometry>
                </mxCell>
                <mxCell id="zMi2RWC_D5SmOm9ZdKYv-11" value="client" style="rounded=0;whiteSpace=wrap;html=1;" parent="YJelYly-FgUSJej3EUSM-1" vertex="1">
                    <mxGeometry x="297" y="52" width="120" height="60" as="geometry"/>
                </mxCell>
                <mxCell id="zMi2RWC_D5SmOm9ZdKYv-12" value="&lt;meta charset=&quot;utf-8&quot;&gt;&lt;div style=&quot;color: rgb(212, 212, 212); background-color: rgb(30, 30, 30); font-family: &amp;quot;droid sans mono&amp;quot;, monospace, monospace, &amp;quot;droid sans fallback&amp;quot;; font-weight: normal; font-size: 14px; line-height: 19px;&quot;&gt;&lt;div&gt;&lt;span style=&quot;color: #ce9178&quot;&gt;50051&lt;/span&gt;&lt;/div&gt;&lt;/div&gt;" style="text;whiteSpace=wrap;html=1;" parent="YJelYly-FgUSJej3EUSM-1" vertex="1">
                    <mxGeometry x="332" y="82" width="70" height="30" as="geometry"/>
                </mxCell>
                <mxCell id="zMi2RWC_D5SmOm9ZdKYv-13" value="&lt;meta charset=&quot;utf-8&quot;&gt;&lt;div style=&quot;color: rgb(212, 212, 212); background-color: rgb(30, 30, 30); font-family: &amp;quot;droid sans mono&amp;quot;, monospace, monospace, &amp;quot;droid sans fallback&amp;quot;; font-weight: normal; font-size: 14px; line-height: 19px;&quot;&gt;&lt;div&gt;&lt;span style=&quot;color: #ce9178&quot;&gt;1515&lt;/span&gt;&lt;/div&gt;&lt;/div&gt;" style="text;whiteSpace=wrap;html=1;" parent="YJelYly-FgUSJej3EUSM-1" vertex="1">
                    <mxGeometry x="335" y="300" width="60" height="30" as="geometry"/>
                </mxCell>
                <mxCell id="zMi2RWC_D5SmOm9ZdKYv-14" value="&lt;meta charset=&quot;utf-8&quot;&gt;&lt;div style=&quot;color: rgb(212, 212, 212); background-color: rgb(30, 30, 30); font-family: &amp;quot;droid sans mono&amp;quot;, monospace, monospace, &amp;quot;droid sans fallback&amp;quot;; font-weight: normal; font-size: 14px; line-height: 19px;&quot;&gt;&lt;div&gt;&lt;span style=&quot;color: #ce9178&quot;&gt;2626&lt;/span&gt;&lt;/div&gt;&lt;/div&gt;" style="text;whiteSpace=wrap;html=1;" parent="YJelYly-FgUSJej3EUSM-1" vertex="1">
                    <mxGeometry x="190" y="450" width="60" height="30" as="geometry"/>
                </mxCell>
                <mxCell id="zMi2RWC_D5SmOm9ZdKYv-15" value="&lt;meta charset=&quot;utf-8&quot;&gt;&lt;div style=&quot;color: rgb(212, 212, 212); background-color: rgb(30, 30, 30); font-family: &amp;quot;droid sans mono&amp;quot;, monospace, monospace, &amp;quot;droid sans fallback&amp;quot;; font-weight: normal; font-size: 14px; line-height: 19px;&quot;&gt;&lt;div&gt;&lt;span style=&quot;color: #ce9178&quot;&gt;2626&lt;/span&gt;&lt;/div&gt;&lt;/div&gt;" style="text;whiteSpace=wrap;html=1;" parent="YJelYly-FgUSJej3EUSM-1" vertex="1">
                    <mxGeometry x="337" y="450" width="60" height="30" as="geometry"/>
                </mxCell>
                <mxCell id="zMi2RWC_D5SmOm9ZdKYv-16" value="&lt;meta charset=&quot;utf-8&quot;&gt;&lt;div style=&quot;color: rgb(212, 212, 212); background-color: rgb(30, 30, 30); font-family: &amp;quot;droid sans mono&amp;quot;, monospace, monospace, &amp;quot;droid sans fallback&amp;quot;; font-weight: normal; font-size: 14px; line-height: 19px;&quot;&gt;&lt;div&gt;&lt;span style=&quot;color: #ce9178&quot;&gt;2626&lt;/span&gt;&lt;/div&gt;&lt;/div&gt;" style="text;whiteSpace=wrap;html=1;" parent="YJelYly-FgUSJej3EUSM-1" vertex="1">
                    <mxGeometry x="490" y="450" width="60" height="30" as="geometry"/>
                </mxCell>
                <mxCell id="zMi2RWC_D5SmOm9ZdKYv-17" value="&lt;meta charset=&quot;utf-8&quot;&gt;&lt;div style=&quot;color: rgb(212, 212, 212); background-color: rgb(30, 30, 30); font-family: &amp;quot;droid sans mono&amp;quot;, monospace, monospace, &amp;quot;droid sans fallback&amp;quot;; font-weight: normal; font-size: 14px; line-height: 19px;&quot;&gt;&lt;div&gt;&lt;span style=&quot;color: #ce9178&quot;&gt;50051&lt;/span&gt;&lt;/div&gt;&lt;/div&gt;" style="text;whiteSpace=wrap;html=1;" parent="YJelYly-FgUSJej3EUSM-1" vertex="1">
                    <mxGeometry x="340" y="170" width="70" height="30" as="geometry"/>
                </mxCell>
                <mxCell id="27" style="edgeStyle=orthogonalEdgeStyle;rounded=0;orthogonalLoop=1;jettySize=auto;html=1;entryX=0;entryY=0.5;entryDx=0;entryDy=0;" parent="YJelYly-FgUSJej3EUSM-1" source="11" target="23" edge="1">
                    <mxGeometry relative="1" as="geometry"/>
                </mxCell>
                <mxCell id="11" value="pods" style="rounded=0;whiteSpace=wrap;html=1;" parent="YJelYly-FgUSJej3EUSM-1" vertex="1">
                    <mxGeometry x="528" y="302" width="60" height="25" as="geometry"/>
                </mxCell>
                <mxCell id="21" style="edgeStyle=orthogonalEdgeStyle;rounded=0;orthogonalLoop=1;jettySize=auto;html=1;exitX=0.5;exitY=1;exitDx=0;exitDy=0;entryX=0;entryY=0.5;entryDx=0;entryDy=0;" parent="YJelYly-FgUSJej3EUSM-1" source="13" target="zMi2RWC_D5SmOm9ZdKYv-10" edge="1">
                    <mxGeometry relative="1" as="geometry">
                        <mxPoint x="70" y="340" as="targetPoint"/>
                        <Array as="points">
                            <mxPoint x="360" y="670"/>
                            <mxPoint x="100" y="670"/>
                            <mxPoint x="100" y="200"/>
                        </Array>
                    </mxGeometry>
                </mxCell>
                <mxCell id="13" value="TailPea" style="rounded=0;whiteSpace=wrap;html=1;" parent="YJelYly-FgUSJej3EUSM-1" vertex="1">
                    <mxGeometry x="297" y="590" width="120" height="60" as="geometry"/>
                </mxCell>
                <mxCell id="26" style="edgeStyle=orthogonalEdgeStyle;rounded=0;orthogonalLoop=1;jettySize=auto;html=1;entryX=0.5;entryY=0;entryDx=0;entryDy=0;" parent="YJelYly-FgUSJej3EUSM-1" source="22" target="23" edge="1">
                    <mxGeometry relative="1" as="geometry"/>
                </mxCell>
                <mxCell id="22" value="flow" style="rounded=0;whiteSpace=wrap;html=1;" parent="YJelYly-FgUSJej3EUSM-1" vertex="1">
                    <mxGeometry x="648" y="170" width="120" height="60" as="geometry"/>
                </mxCell>
                <mxCell id="23" value="yaml file" style="rounded=0;whiteSpace=wrap;html=1;" parent="YJelYly-FgUSJej3EUSM-1" vertex="1">
                    <mxGeometry x="648" y="450" width="120" height="60" as="geometry"/>
                </mxCell>
            </root>
        </mxGraphModel>
    </diagram>
    <diagram id="8rEF43yWVnDnmbxcFgDm" name="pods">
        &#xa;        &#xa;        &#xa;        &#xa;&#xa;&#xa;&#xa;
        <mxGraphModel dx="892" dy="485" grid="1" gridSize="10" guides="1" tooltips="1" connect="1" arrows="1" fold="1" page="1" pageScale="1" pageWidth="850" pageHeight="1100" math="0" shadow="0">
            &#xa;            &#xa;            &#xa;            &#xa;&#xa;&#xa;&#xa;
            <root>
                &#xa;                &#xa;                &#xa;                &#xa;&#xa;&#xa;&#xa;
                <mxCell id="5tk75lUnNE8k8wy2Cw3M-0"/>
                &#xa;                &#xa;                &#xa;                &#xa;&#xa;&#xa;&#xa;
                <mxCell id="5tk75lUnNE8k8wy2Cw3M-1" parent="5tk75lUnNE8k8wy2Cw3M-0"/>
                &#xa;                &#xa;                &#xa;                &#xa;&#xa;&#xa;&#xa;
                <mxCell id="5tk75lUnNE8k8wy2Cw3M-12" value="" style="rounded=0;whiteSpace=wrap;html=1;" parent="5tk75lUnNE8k8wy2Cw3M-1" vertex="1">
                    &#xa;                    &#xa;                    &#xa;                    &#xa;&#xa;&#xa;&#xa;
                    <mxGeometry x="400" y="320" width="90" height="120" as="geometry"/>
                    &#xa;                    &#xa;                    &#xa;                    &#xa;&#xa;&#xa;&#xa;
                </mxCell>
                &#xa;                &#xa;                &#xa;                &#xa;&#xa;&#xa;&#xa;
                <mxCell id="5tk75lUnNE8k8wy2Cw3M-2" value="process2" style="rounded=0;whiteSpace=wrap;html=1;" parent="5tk75lUnNE8k8wy2Cw3M-1" vertex="1">
                    &#xa;                    &#xa;                    &#xa;                    &#xa;&#xa;&#xa;&#xa;
                    <mxGeometry x="480" y="110" width="90" height="60" as="geometry"/>
                    &#xa;                    &#xa;                    &#xa;                    &#xa;&#xa;&#xa;&#xa;
                </mxCell>
                &#xa;                &#xa;                &#xa;                &#xa;&#xa;&#xa;&#xa;
                <mxCell id="5tk75lUnNE8k8wy2Cw3M-26" style="edgeStyle=orthogonalEdgeStyle;rounded=0;orthogonalLoop=1;jettySize=auto;html=1;entryX=0;entryY=0.5;entryDx=0;entryDy=0;" parent="5tk75lUnNE8k8wy2Cw3M-1" source="5tk75lUnNE8k8wy2Cw3M-3" target="5tk75lUnNE8k8wy2Cw3M-15" edge="1">
                    &#xa;                    &#xa;                    &#xa;                    &#xa;&#xa;&#xa;&#xa;
                    <mxGeometry relative="1" as="geometry"/>
                    &#xa;                    &#xa;                    &#xa;                    &#xa;&#xa;&#xa;&#xa;
                </mxCell>
                &#xa;                &#xa;                &#xa;                &#xa;&#xa;&#xa;&#xa;
                <mxCell id="5tk75lUnNE8k8wy2Cw3M-3" value="&lt;span&gt;headpea&lt;/span&gt;" style="rounded=0;whiteSpace=wrap;html=1;" parent="5tk75lUnNE8k8wy2Cw3M-1" vertex="1">
                    &#xa;                    &#xa;                    &#xa;                    &#xa;&#xa;&#xa;&#xa;
                    <mxGeometry x="410" y="350" width="70" height="50" as="geometry"/>
                    &#xa;                    &#xa;                    &#xa;                    &#xa;&#xa;&#xa;&#xa;
                </mxCell>
                &#xa;                &#xa;                &#xa;                &#xa;&#xa;&#xa;&#xa;
                <mxCell id="5tk75lUnNE8k8wy2Cw3M-5" value="Event" style="rounded=0;whiteSpace=wrap;html=1;" parent="5tk75lUnNE8k8wy2Cw3M-1" vertex="1">
                    &#xa;                    &#xa;                    &#xa;                    &#xa;&#xa;&#xa;&#xa;
                    <mxGeometry x="250" y="350" width="120" height="60" as="geometry"/>
                    &#xa;                    &#xa;                    &#xa;                    &#xa;&#xa;&#xa;&#xa;
                </mxCell>
                &#xa;                &#xa;                &#xa;                &#xa;&#xa;&#xa;&#xa;
                <mxCell id="5tk75lUnNE8k8wy2Cw3M-6" value="set" style="rounded=0;whiteSpace=wrap;html=1;" parent="5tk75lUnNE8k8wy2Cw3M-1" vertex="1">
                    &#xa;                    &#xa;                    &#xa;                    &#xa;&#xa;&#xa;&#xa;
                    <mxGeometry x="560" y="20" width="120" height="60" as="geometry"/>
                    &#xa;                    &#xa;                    &#xa;                    &#xa;&#xa;&#xa;&#xa;
                </mxCell>
                &#xa;                &#xa;                &#xa;                &#xa;&#xa;&#xa;&#xa;
                <mxCell id="5tk75lUnNE8k8wy2Cw3M-7" value="" style="rounded=0;whiteSpace=wrap;html=1;" parent="5tk75lUnNE8k8wy2Cw3M-1" vertex="1">
                    &#xa;                    &#xa;                    &#xa;                    &#xa;&#xa;&#xa;&#xa;
                    <mxGeometry x="600" y="320" width="100" height="300" as="geometry"/>
                    &#xa;                    &#xa;                    &#xa;                    &#xa;&#xa;&#xa;&#xa;
                </mxCell>
                &#xa;                &#xa;                &#xa;                &#xa;&#xa;&#xa;&#xa;
                <mxCell id="5tk75lUnNE8k8wy2Cw3M-8" value="Text" style="text;html=1;strokeColor=none;fillColor=none;align=center;verticalAlign=middle;whiteSpace=wrap;rounded=0;" parent="5tk75lUnNE8k8wy2Cw3M-1" vertex="1">
                    &#xa;                    &#xa;                    &#xa;                    &#xa;&#xa;&#xa;&#xa;
                    <mxGeometry x="610" y="355" width="40" height="20" as="geometry"/>
                    &#xa;                    &#xa;                    &#xa;                    &#xa;&#xa;&#xa;&#xa;
                </mxCell>
                &#xa;                &#xa;                &#xa;                &#xa;&#xa;&#xa;&#xa;
                <mxCell id="5tk75lUnNE8k8wy2Cw3M-9" value="" style="rounded=0;whiteSpace=wrap;html=1;" parent="5tk75lUnNE8k8wy2Cw3M-1" vertex="1">
                    &#xa;                    &#xa;                    &#xa;                    &#xa;&#xa;&#xa;&#xa;
                    <mxGeometry x="250" y="320" width="120" height="120" as="geometry"/>
                    &#xa;                    &#xa;                    &#xa;                    &#xa;&#xa;&#xa;&#xa;
                </mxCell>
                &#xa;                &#xa;                &#xa;                &#xa;&#xa;&#xa;&#xa;
                <mxCell id="5tk75lUnNE8k8wy2Cw3M-11" value="" style="rounded=0;whiteSpace=wrap;html=1;" parent="5tk75lUnNE8k8wy2Cw3M-1" vertex="1">
                    &#xa;                    &#xa;                    &#xa;                    &#xa;&#xa;&#xa;&#xa;
                    <mxGeometry x="250" y="485" width="120" height="115" as="geometry"/>
                    &#xa;                    &#xa;                    &#xa;                    &#xa;&#xa;&#xa;&#xa;
                </mxCell>
                &#xa;                &#xa;                &#xa;                &#xa;&#xa;&#xa;&#xa;
                <mxCell id="5tk75lUnNE8k8wy2Cw3M-13" value="Text" style="text;html=1;strokeColor=none;fillColor=none;align=center;verticalAlign=middle;whiteSpace=wrap;rounded=0;" parent="5tk75lUnNE8k8wy2Cw3M-1" vertex="1">
                    &#xa;                    &#xa;                    &#xa;                    &#xa;&#xa;&#xa;&#xa;
                    <mxGeometry x="610" y="395" width="40" height="20" as="geometry"/>
                    &#xa;                    &#xa;                    &#xa;                    &#xa;&#xa;&#xa;&#xa;
                </mxCell>
                &#xa;                &#xa;                &#xa;                &#xa;&#xa;&#xa;&#xa;
                <mxCell id="5tk75lUnNE8k8wy2Cw3M-14" value="Text" style="text;html=1;strokeColor=none;fillColor=none;align=center;verticalAlign=middle;whiteSpace=wrap;rounded=0;" parent="5tk75lUnNE8k8wy2Cw3M-1" vertex="1">
                    &#xa;                    &#xa;                    &#xa;                    &#xa;&#xa;&#xa;&#xa;
                    <mxGeometry x="610" y="435" width="40" height="20" as="geometry"/>
                    &#xa;                    &#xa;                    &#xa;                    &#xa;&#xa;&#xa;&#xa;
                </mxCell>
                &#xa;                &#xa;                &#xa;                &#xa;&#xa;&#xa;&#xa;
                <mxCell id="5tk75lUnNE8k8wy2Cw3M-15" value="Text" style="text;html=1;strokeColor=none;fillColor=none;align=center;verticalAlign=middle;whiteSpace=wrap;rounded=0;" parent="5tk75lUnNE8k8wy2Cw3M-1" vertex="1">
                    &#xa;                    &#xa;                    &#xa;                    &#xa;&#xa;&#xa;&#xa;
                    <mxGeometry x="610" y="485" width="40" height="20" as="geometry"/>
                    &#xa;                    &#xa;                    &#xa;                    &#xa;&#xa;&#xa;&#xa;
                </mxCell>
                &#xa;                &#xa;                &#xa;                &#xa;&#xa;&#xa;&#xa;
                <mxCell id="5tk75lUnNE8k8wy2Cw3M-22" value="" style="rounded=0;whiteSpace=wrap;html=1;" parent="5tk75lUnNE8k8wy2Cw3M-1" vertex="1">
                    &#xa;                    &#xa;                    &#xa;                    &#xa;&#xa;&#xa;&#xa;
                    <mxGeometry x="400" y="485" width="90" height="120" as="geometry"/>
                    &#xa;                    &#xa;                    &#xa;                    &#xa;&#xa;&#xa;&#xa;
                </mxCell>
                &#xa;                &#xa;                &#xa;                &#xa;&#xa;&#xa;&#xa;
                <mxCell id="5tk75lUnNE8k8wy2Cw3M-27" style="edgeStyle=orthogonalEdgeStyle;rounded=0;orthogonalLoop=1;jettySize=auto;html=1;entryX=0.01;entryY=0.583;entryDx=0;entryDy=0;entryPerimeter=0;" parent="5tk75lUnNE8k8wy2Cw3M-1" source="5tk75lUnNE8k8wy2Cw3M-23" target="5tk75lUnNE8k8wy2Cw3M-7" edge="1">
                    &#xa;                    &#xa;                    &#xa;                    &#xa;&#xa;&#xa;&#xa;
                    <mxGeometry relative="1" as="geometry"/>
                    &#xa;                    &#xa;                    &#xa;                    &#xa;&#xa;&#xa;&#xa;
                </mxCell>
                &#xa;                &#xa;                &#xa;                &#xa;&#xa;&#xa;&#xa;
                <mxCell id="5tk75lUnNE8k8wy2Cw3M-23" value="&lt;span&gt;main&lt;/span&gt;" style="rounded=0;whiteSpace=wrap;html=1;" parent="5tk75lUnNE8k8wy2Cw3M-1" vertex="1">
                    &#xa;                    &#xa;                    &#xa;                    &#xa;&#xa;&#xa;&#xa;
                    <mxGeometry x="400" y="515" width="90" height="60" as="geometry"/>
                    &#xa;                    &#xa;                    &#xa;                    &#xa;&#xa;&#xa;&#xa;
                </mxCell>
                &#xa;                &#xa;                &#xa;                &#xa;&#xa;&#xa;&#xa;
                <mxCell id="5tk75lUnNE8k8wy2Cw3M-25" style="edgeStyle=orthogonalEdgeStyle;rounded=0;orthogonalLoop=1;jettySize=auto;html=1;exitX=1;exitY=0.5;exitDx=0;exitDy=0;entryX=0;entryY=0.5;entryDx=0;entryDy=0;" parent="5tk75lUnNE8k8wy2Cw3M-1" source="5tk75lUnNE8k8wy2Cw3M-24" target="5tk75lUnNE8k8wy2Cw3M-3" edge="1">
                    &#xa;                    &#xa;                    &#xa;                    &#xa;&#xa;&#xa;&#xa;
                    <mxGeometry relative="1" as="geometry"/>
                    &#xa;                    &#xa;                    &#xa;                    &#xa;&#xa;&#xa;&#xa;
                </mxCell>
                &#xa;                &#xa;                &#xa;                &#xa;&#xa;&#xa;&#xa;
                <mxCell id="5tk75lUnNE8k8wy2Cw3M-24" value="&lt;span&gt;Event&lt;/span&gt;" style="rounded=0;whiteSpace=wrap;html=1;" parent="5tk75lUnNE8k8wy2Cw3M-1" vertex="1">
                    &#xa;                    &#xa;                    &#xa;                    &#xa;&#xa;&#xa;&#xa;
                    <mxGeometry x="280" y="330" width="60" height="30" as="geometry"/>
                    &#xa;                    &#xa;                    &#xa;                    &#xa;&#xa;&#xa;&#xa;
                </mxCell>
                &#xa;                &#xa;                &#xa;                &#xa;&#xa;&#xa;&#xa;
            </root>
            &#xa;            &#xa;            &#xa;            &#xa;&#xa;&#xa;&#xa;
        </mxGraphModel>
        &#xa;        &#xa;        &#xa;        &#xa;&#xa;&#xa;&#xa;
    </diagram>
    <diagram id="DE3BWMjO7Fy_ad8mhYJr" name="flow">
        &#xa;        &#xa;&#xa;
        <mxGraphModel dx="1132" dy="763" grid="1" gridSize="10" guides="1" tooltips="1" connect="1" arrows="1" fold="1" page="1" pageScale="1" pageWidth="850" pageHeight="1100" math="0" shadow="0">
            &#xa;            &#xa;&#xa;
            <root>
                &#xa;                &#xa;&#xa;
                <mxCell id="jpNuJnCxyzQhbMyTNRLn-0"/>
                &#xa;                &#xa;&#xa;
                <mxCell id="jpNuJnCxyzQhbMyTNRLn-1" parent="jpNuJnCxyzQhbMyTNRLn-0"/>
                &#xa;                &#xa;&#xa;
                <mxCell id="B_aJjs7D-MfWM6Vi5Eg5-1" style="edgeStyle=orthogonalEdgeStyle;rounded=0;orthogonalLoop=1;jettySize=auto;html=1;entryX=0.5;entryY=1;entryDx=0;entryDy=0;" parent="jpNuJnCxyzQhbMyTNRLn-1" source="B_aJjs7D-MfWM6Vi5Eg5-2" target="B_aJjs7D-MfWM6Vi5Eg5-7" edge="1">
                    &#xa;                    &#xa;&#xa;
                    <mxGeometry relative="1" as="geometry"/>
                    &#xa;                    &#xa;&#xa;
                </mxCell>
                &#xa;                &#xa;&#xa;
                <mxCell id="B_aJjs7D-MfWM6Vi5Eg5-2" value="&lt;div style=&quot;color: rgb(212 , 212 , 212) ; background-color: rgb(30 , 30 , 30) ; font-family: &amp;#34;droid sans mono&amp;#34; , monospace , monospace , &amp;#34;droid sans fallback&amp;#34; ; font-size: 14px ; line-height: 19px&quot;&gt;&lt;span style=&quot;color: #4ec9b0&quot;&gt;Flow&lt;/span&gt;&lt;/div&gt;" style="rounded=0;whiteSpace=wrap;html=1;" parent="jpNuJnCxyzQhbMyTNRLn-1" vertex="1">
                    &#xa;                    &#xa;&#xa;
                    <mxGeometry x="250" y="470" width="120" height="60" as="geometry"/>
                    &#xa;                    &#xa;&#xa;
                </mxCell>
                &#xa;                &#xa;&#xa;
                <mxCell id="B_aJjs7D-MfWM6Vi5Eg5-4" style="edgeStyle=orthogonalEdgeStyle;rounded=0;orthogonalLoop=1;jettySize=auto;html=1;entryX=0.5;entryY=1;entryDx=0;entryDy=0;" parent="jpNuJnCxyzQhbMyTNRLn-1" source="B_aJjs7D-MfWM6Vi5Eg5-7" target="B_aJjs7D-MfWM6Vi5Eg5-8" edge="1">
                    &#xa;                    &#xa;&#xa;
                    <mxGeometry relative="1" as="geometry"/>
                    &#xa;                    &#xa;&#xa;
                </mxCell>
                &#xa;                &#xa;&#xa;
                <mxCell id="B_aJjs7D-MfWM6Vi5Eg5-6" style="edgeStyle=orthogonalEdgeStyle;rounded=0;orthogonalLoop=1;jettySize=auto;html=1;entryX=0.5;entryY=1;entryDx=0;entryDy=0;" parent="jpNuJnCxyzQhbMyTNRLn-1" source="B_aJjs7D-MfWM6Vi5Eg5-7" target="B_aJjs7D-MfWM6Vi5Eg5-27" edge="1">
                    &#xa;                    &#xa;&#xa;
                    <mxGeometry relative="1" as="geometry"/>
                    &#xa;                    &#xa;&#xa;
                </mxCell>
                &#xa;                &#xa;&#xa;
                <mxCell id="B_aJjs7D-MfWM6Vi5Eg5-7" value="&lt;div style=&quot;color: rgb(212 , 212 , 212) ; background-color: rgb(30 , 30 , 30) ; font-family: &amp;#34;droid sans mono&amp;#34; , monospace , monospace , &amp;#34;droid sans fallback&amp;#34; ; font-size: 14px ; line-height: 19px&quot;&gt;&lt;span style=&quot;color: #4ec9b0&quot;&gt;BaseFlow&lt;/span&gt;&lt;/div&gt;" style="rounded=0;whiteSpace=wrap;html=1;" parent="jpNuJnCxyzQhbMyTNRLn-1" vertex="1">
                    &#xa;                    &#xa;&#xa;
                    <mxGeometry x="250" y="330" width="120" height="60" as="geometry"/>
                    &#xa;                    &#xa;&#xa;
                </mxCell>
                &#xa;                &#xa;&#xa;
                <mxCell id="R8_KcSkiHCYfyLnMajHr-24" style="edgeStyle=orthogonalEdgeStyle;rounded=0;orthogonalLoop=1;jettySize=auto;html=1;exitX=1;exitY=0.5;exitDx=0;exitDy=0;entryX=0;entryY=0.5;entryDx=0;entryDy=0;" parent="jpNuJnCxyzQhbMyTNRLn-1" source="B_aJjs7D-MfWM6Vi5Eg5-8" target="R8_KcSkiHCYfyLnMajHr-1" edge="1">
                    &#xa;                    &#xa;&#xa;
                    <mxGeometry relative="1" as="geometry"/>
                    &#xa;                    &#xa;&#xa;
                </mxCell>
                &#xa;                &#xa;&#xa;
                <mxCell id="R8_KcSkiHCYfyLnMajHr-25" style="edgeStyle=orthogonalEdgeStyle;rounded=0;orthogonalLoop=1;jettySize=auto;html=1;exitX=1;exitY=0.5;exitDx=0;exitDy=0;entryX=0;entryY=0.5;entryDx=0;entryDy=0;" parent="jpNuJnCxyzQhbMyTNRLn-1" source="B_aJjs7D-MfWM6Vi5Eg5-8" target="R8_KcSkiHCYfyLnMajHr-2" edge="1">
                    &#xa;                    &#xa;&#xa;
                    <mxGeometry relative="1" as="geometry"/>
                    &#xa;                    &#xa;&#xa;
                </mxCell>
                &#xa;                &#xa;&#xa;
                <mxCell id="R8_KcSkiHCYfyLnMajHr-26" style="edgeStyle=orthogonalEdgeStyle;rounded=0;orthogonalLoop=1;jettySize=auto;html=1;exitX=1;exitY=0.5;exitDx=0;exitDy=0;entryX=0;entryY=0.5;entryDx=0;entryDy=0;" parent="jpNuJnCxyzQhbMyTNRLn-1" source="B_aJjs7D-MfWM6Vi5Eg5-8" target="R8_KcSkiHCYfyLnMajHr-3" edge="1">
                    &#xa;                    &#xa;&#xa;
                    <mxGeometry relative="1" as="geometry"/>
                    &#xa;                    &#xa;&#xa;
                </mxCell>
                &#xa;                &#xa;&#xa;
                <mxCell id="R8_KcSkiHCYfyLnMajHr-27" style="edgeStyle=orthogonalEdgeStyle;rounded=0;orthogonalLoop=1;jettySize=auto;html=1;entryX=0;entryY=0.5;entryDx=0;entryDy=0;" parent="jpNuJnCxyzQhbMyTNRLn-1" source="B_aJjs7D-MfWM6Vi5Eg5-8" target="R8_KcSkiHCYfyLnMajHr-4" edge="1">
                    &#xa;                    &#xa;&#xa;
                    <mxGeometry relative="1" as="geometry"/>
                    &#xa;                    &#xa;&#xa;
                </mxCell>
                &#xa;                &#xa;&#xa;
                <mxCell id="R8_KcSkiHCYfyLnMajHr-28" style="edgeStyle=orthogonalEdgeStyle;rounded=0;orthogonalLoop=1;jettySize=auto;html=1;entryX=0;entryY=0.5;entryDx=0;entryDy=0;" parent="jpNuJnCxyzQhbMyTNRLn-1" source="B_aJjs7D-MfWM6Vi5Eg5-8" target="R8_KcSkiHCYfyLnMajHr-5" edge="1">
                    &#xa;                    &#xa;&#xa;
                    <mxGeometry relative="1" as="geometry"/>
                    &#xa;                    &#xa;&#xa;
                </mxCell>
                &#xa;                &#xa;&#xa;
                <mxCell id="B_aJjs7D-MfWM6Vi5Eg5-8" value="&lt;div style=&quot;color: rgb(212 , 212 , 212) ; background-color: rgb(30 , 30 , 30) ; font-family: &amp;#34;droid sans mono&amp;#34; , monospace , monospace , &amp;#34;droid sans fallback&amp;#34; ; font-size: 14px ; line-height: 19px&quot;&gt;&lt;span style=&quot;color: #4ec9b0&quot;&gt;JAMLCompatible&lt;/span&gt;&lt;/div&gt;" style="rounded=0;whiteSpace=wrap;html=1;" parent="jpNuJnCxyzQhbMyTNRLn-1" vertex="1">
                    &#xa;                    &#xa;&#xa;
                    <mxGeometry x="420" y="190" width="120" height="60" as="geometry"/>
                    &#xa;                    &#xa;&#xa;
                </mxCell>
                &#xa;                &#xa;&#xa;
                <mxCell id="B_aJjs7D-MfWM6Vi5Eg5-22" value="&lt;meta charset=&quot;utf-8&quot;&gt;&lt;div style=&quot;color: rgb(212, 212, 212); background-color: rgb(30, 30, 30); font-family: &amp;quot;droid sans mono&amp;quot;, monospace, monospace, &amp;quot;droid sans fallback&amp;quot;; font-weight: normal; font-size: 14px; line-height: 19px;&quot;&gt;&lt;div&gt;&lt;span style=&quot;color: #d4d4d4&quot;&gt;inherit&lt;/span&gt;&lt;/div&gt;&lt;/div&gt;" style="text;whiteSpace=wrap;html=1;" parent="jpNuJnCxyzQhbMyTNRLn-1" vertex="1">
                    &#xa;                    &#xa;&#xa;
                    <mxGeometry x="420" y="290" width="80" height="30" as="geometry"/>
                    &#xa;                    &#xa;&#xa;
                </mxCell>
                &#xa;                &#xa;&#xa;
                <mxCell id="B_aJjs7D-MfWM6Vi5Eg5-24" value="&lt;meta charset=&quot;utf-8&quot;&gt;&lt;div style=&quot;color: rgb(212, 212, 212); background-color: rgb(30, 30, 30); font-family: &amp;quot;droid sans mono&amp;quot;, monospace, monospace, &amp;quot;droid sans fallback&amp;quot;; font-weight: normal; font-size: 14px; line-height: 19px;&quot;&gt;&lt;div&gt;&lt;span style=&quot;color: #d4d4d4&quot;&gt;inherit&lt;/span&gt;&lt;/div&gt;&lt;/div&gt;" style="text;whiteSpace=wrap;html=1;" parent="jpNuJnCxyzQhbMyTNRLn-1" vertex="1">
                    &#xa;                    &#xa;&#xa;
                    <mxGeometry x="280" y="420" width="80" height="30" as="geometry"/>
                    &#xa;                    &#xa;&#xa;
                </mxCell>
                &#xa;                &#xa;&#xa;
                <mxCell id="B_aJjs7D-MfWM6Vi5Eg5-26" style="edgeStyle=orthogonalEdgeStyle;rounded=0;orthogonalLoop=1;jettySize=auto;html=1;entryX=0.5;entryY=0;entryDx=0;entryDy=0;" parent="jpNuJnCxyzQhbMyTNRLn-1" source="B_aJjs7D-MfWM6Vi5Eg5-27" target="B_aJjs7D-MfWM6Vi5Eg5-8" edge="1">
                    &#xa;                    &#xa;&#xa;
                    <mxGeometry relative="1" as="geometry"/>
                    &#xa;                    &#xa;&#xa;
                </mxCell>
                &#xa;                &#xa;&#xa;
                <mxCell id="B_aJjs7D-MfWM6Vi5Eg5-27" value="&lt;div style=&quot;color: rgb(212 , 212 , 212) ; background-color: rgb(30 , 30 , 30) ; font-family: &amp;#34;droid sans mono&amp;#34; , monospace , monospace , &amp;#34;droid sans fallback&amp;#34; ; font-size: 14px ; line-height: 19px&quot;&gt;&lt;span style=&quot;color: #4ec9b0&quot;&gt;FlowType&lt;/span&gt;&lt;/div&gt;" style="rounded=0;whiteSpace=wrap;html=1;" parent="jpNuJnCxyzQhbMyTNRLn-1" vertex="1">
                    &#xa;                    &#xa;&#xa;
                    <mxGeometry x="250" y="40" width="120" height="60" as="geometry"/>
                    &#xa;                    &#xa;&#xa;
                </mxCell>
                &#xa;                &#xa;&#xa;
                <mxCell id="B_aJjs7D-MfWM6Vi5Eg5-28" value="&lt;meta charset=&quot;utf-8&quot;&gt;&lt;div style=&quot;color: rgb(212, 212, 212); background-color: rgb(30, 30, 30); font-family: &amp;quot;droid sans mono&amp;quot;, monospace, monospace, &amp;quot;droid sans fallback&amp;quot;; font-weight: normal; font-size: 14px; line-height: 19px;&quot;&gt;&lt;div&gt;&lt;span style=&quot;color: #4ec9b0&quot;&gt;metaclass&lt;/span&gt;&lt;/div&gt;&lt;/div&gt;" style="text;whiteSpace=wrap;html=1;" parent="jpNuJnCxyzQhbMyTNRLn-1" vertex="1">
                    &#xa;                    &#xa;&#xa;
                    <mxGeometry x="270" y="160" width="100" height="30" as="geometry"/>
                    &#xa;                    &#xa;&#xa;
                </mxCell>
                &#xa;                &#xa;&#xa;
                <mxCell id="R8_KcSkiHCYfyLnMajHr-1" value="&lt;div style=&quot;color: rgb(212 , 212 , 212) ; background-color: rgb(30 , 30 , 30) ; font-family: &amp;#34;consolas&amp;#34; , &amp;#34;courier new&amp;#34; , monospace ; font-size: 14px ; line-height: 19px&quot;&gt;&lt;span style=&quot;color: #dcdcaa&quot;&gt;_to_yaml&lt;/span&gt;&lt;/div&gt;" style="rounded=1;whiteSpace=wrap;html=1;" parent="jpNuJnCxyzQhbMyTNRLn-1" vertex="1">
                    &#xa;                    &#xa;&#xa;
                    <mxGeometry x="630" y="100" width="120" height="40" as="geometry"/>
                    &#xa;                    &#xa;&#xa;
                </mxCell>
                &#xa;                &#xa;&#xa;
                <mxCell id="R8_KcSkiHCYfyLnMajHr-2" value="&#10;&#10;&lt;div style=&quot;color: rgb(212, 212, 212); background-color: rgb(30, 30, 30); font-family: consolas, &amp;quot;courier new&amp;quot;, monospace; font-weight: normal; font-size: 14px; line-height: 19px;&quot;&gt;&lt;div&gt;&lt;span style=&quot;color: #dcdcaa&quot;&gt;_from_yaml&lt;/span&gt;&lt;/div&gt;&lt;/div&gt;&#10;&#10;" style="rounded=1;whiteSpace=wrap;html=1;" parent="jpNuJnCxyzQhbMyTNRLn-1" vertex="1">
                    &#xa;                    &#xa;&#xa;
                    <mxGeometry x="630" y="150" width="120" height="40" as="geometry"/>
                    &#xa;                    &#xa;&#xa;
                </mxCell>
                &#xa;                &#xa;&#xa;
                <mxCell id="R8_KcSkiHCYfyLnMajHr-3" value="&#10;&#10;&lt;div style=&quot;color: rgb(212, 212, 212); background-color: rgb(30, 30, 30); font-family: consolas, &amp;quot;courier new&amp;quot;, monospace; font-weight: normal; font-size: 14px; line-height: 19px;&quot;&gt;&lt;div&gt;&lt;span style=&quot;color: #dcdcaa&quot;&gt;save_config&lt;/span&gt;&lt;/div&gt;&lt;/div&gt;&#10;&#10;" style="rounded=1;whiteSpace=wrap;html=1;" parent="jpNuJnCxyzQhbMyTNRLn-1" vertex="1">
                    &#xa;                    &#xa;&#xa;
                    <mxGeometry x="630" y="200" width="120" height="40" as="geometry"/>
                    &#xa;                    &#xa;&#xa;
                </mxCell>
                &#xa;                &#xa;&#xa;
                <mxCell id="R8_KcSkiHCYfyLnMajHr-4" value="&#10;&#10;&lt;div style=&quot;color: rgb(212, 212, 212); background-color: rgb(30, 30, 30); font-family: consolas, &amp;quot;courier new&amp;quot;, monospace; font-weight: normal; font-size: 14px; line-height: 19px;&quot;&gt;&lt;div&gt;&lt;span style=&quot;color: #dcdcaa&quot;&gt;load_config&lt;/span&gt;&lt;/div&gt;&lt;/div&gt;&#10;&#10;" style="rounded=1;whiteSpace=wrap;html=1;" parent="jpNuJnCxyzQhbMyTNRLn-1" vertex="1">
                    &#xa;                    &#xa;&#xa;
                    <mxGeometry x="630" y="250" width="120" height="40" as="geometry"/>
                    &#xa;                    &#xa;&#xa;
                </mxCell>
                &#xa;                &#xa;&#xa;
                <mxCell id="R8_KcSkiHCYfyLnMajHr-5" value="&#10;&#10;&lt;div style=&quot;color: rgb(212, 212, 212); background-color: rgb(30, 30, 30); font-family: consolas, &amp;quot;courier new&amp;quot;, monospace; font-weight: normal; font-size: 14px; line-height: 19px;&quot;&gt;&lt;div&gt;&lt;span style=&quot;color: #dcdcaa&quot;&gt;inject_config&lt;/span&gt;&lt;/div&gt;&lt;/div&gt;&#10;&#10;" style="rounded=1;whiteSpace=wrap;html=1;" parent="jpNuJnCxyzQhbMyTNRLn-1" vertex="1">
                    &#xa;                    &#xa;&#xa;
                    <mxGeometry x="630" y="300" width="120" height="40" as="geometry"/>
                    &#xa;                    &#xa;&#xa;
                </mxCell>
                &#xa;                &#xa;&#xa;
                <mxCell id="R8_KcSkiHCYfyLnMajHr-16" style="edgeStyle=orthogonalEdgeStyle;rounded=0;orthogonalLoop=1;jettySize=auto;html=1;entryX=1;entryY=0.5;entryDx=0;entryDy=0;" parent="jpNuJnCxyzQhbMyTNRLn-1" source="R8_KcSkiHCYfyLnMajHr-7" target="R8_KcSkiHCYfyLnMajHr-8" edge="1">
                    &#xa;                    &#xa;&#xa;
                    <mxGeometry relative="1" as="geometry"/>
                    &#xa;                    &#xa;&#xa;
                </mxCell>
                &#xa;                &#xa;&#xa;
                <mxCell id="R8_KcSkiHCYfyLnMajHr-17" style="edgeStyle=orthogonalEdgeStyle;rounded=0;orthogonalLoop=1;jettySize=auto;html=1;entryX=1;entryY=0.5;entryDx=0;entryDy=0;" parent="jpNuJnCxyzQhbMyTNRLn-1" source="R8_KcSkiHCYfyLnMajHr-7" target="R8_KcSkiHCYfyLnMajHr-9" edge="1">
                    &#xa;                    &#xa;&#xa;
                    <mxGeometry relative="1" as="geometry"/>
                    &#xa;                    &#xa;&#xa;
                </mxCell>
                &#xa;                &#xa;&#xa;
                <mxCell id="R8_KcSkiHCYfyLnMajHr-18" style="edgeStyle=orthogonalEdgeStyle;rounded=0;orthogonalLoop=1;jettySize=auto;html=1;entryX=1;entryY=0.5;entryDx=0;entryDy=0;" parent="jpNuJnCxyzQhbMyTNRLn-1" source="R8_KcSkiHCYfyLnMajHr-7" target="R8_KcSkiHCYfyLnMajHr-10" edge="1">
                    &#xa;                    &#xa;&#xa;
                    <mxGeometry relative="1" as="geometry"/>
                    &#xa;                    &#xa;&#xa;
                </mxCell>
                &#xa;                &#xa;&#xa;
                <mxCell id="R8_KcSkiHCYfyLnMajHr-19" style="edgeStyle=orthogonalEdgeStyle;rounded=0;orthogonalLoop=1;jettySize=auto;html=1;entryX=1;entryY=0.5;entryDx=0;entryDy=0;" parent="jpNuJnCxyzQhbMyTNRLn-1" source="R8_KcSkiHCYfyLnMajHr-7" target="R8_KcSkiHCYfyLnMajHr-11" edge="1">
                    &#xa;                    &#xa;&#xa;
                    <mxGeometry relative="1" as="geometry"/>
                    &#xa;                    &#xa;&#xa;
                </mxCell>
                &#xa;                &#xa;&#xa;
                <mxCell id="R8_KcSkiHCYfyLnMajHr-20" style="edgeStyle=orthogonalEdgeStyle;rounded=0;orthogonalLoop=1;jettySize=auto;html=1;entryX=1;entryY=0.5;entryDx=0;entryDy=0;" parent="jpNuJnCxyzQhbMyTNRLn-1" source="R8_KcSkiHCYfyLnMajHr-7" target="R8_KcSkiHCYfyLnMajHr-12" edge="1">
                    &#xa;                    &#xa;&#xa;
                    <mxGeometry relative="1" as="geometry"/>
                    &#xa;                    &#xa;&#xa;
                </mxCell>
                &#xa;                &#xa;&#xa;
                <mxCell id="R8_KcSkiHCYfyLnMajHr-21" style="edgeStyle=orthogonalEdgeStyle;rounded=0;orthogonalLoop=1;jettySize=auto;html=1;entryX=1;entryY=0.5;entryDx=0;entryDy=0;" parent="jpNuJnCxyzQhbMyTNRLn-1" source="R8_KcSkiHCYfyLnMajHr-7" target="R8_KcSkiHCYfyLnMajHr-13" edge="1">
                    &#xa;                    &#xa;&#xa;
                    <mxGeometry relative="1" as="geometry"/>
                    &#xa;                    &#xa;&#xa;
                </mxCell>
                &#xa;                &#xa;&#xa;
                <mxCell id="R8_KcSkiHCYfyLnMajHr-22" style="edgeStyle=orthogonalEdgeStyle;rounded=0;orthogonalLoop=1;jettySize=auto;html=1;entryX=1;entryY=0.5;entryDx=0;entryDy=0;" parent="jpNuJnCxyzQhbMyTNRLn-1" source="R8_KcSkiHCYfyLnMajHr-7" target="R8_KcSkiHCYfyLnMajHr-14" edge="1">
                    &#xa;                    &#xa;&#xa;
                    <mxGeometry relative="1" as="geometry"/>
                    &#xa;                    &#xa;&#xa;
                </mxCell>
                &#xa;                &#xa;&#xa;
                <mxCell id="R8_KcSkiHCYfyLnMajHr-23" style="edgeStyle=orthogonalEdgeStyle;rounded=0;orthogonalLoop=1;jettySize=auto;html=1;entryX=1;entryY=0.5;entryDx=0;entryDy=0;" parent="jpNuJnCxyzQhbMyTNRLn-1" source="R8_KcSkiHCYfyLnMajHr-7" target="R8_KcSkiHCYfyLnMajHr-15" edge="1">
                    &#xa;                    &#xa;&#xa;
                    <mxGeometry relative="1" as="geometry"/>
                    &#xa;                    &#xa;&#xa;
                </mxCell>
                &#xa;                &#xa;&#xa;
                <mxCell id="R8_KcSkiHCYfyLnMajHr-7" value="&#10;&#10;&lt;div style=&quot;color: rgb(212, 212, 212); background-color: rgb(30, 30, 30); font-family: consolas, &amp;quot;courier new&amp;quot;, monospace; font-weight: normal; font-size: 14px; line-height: 19px;&quot;&gt;&lt;div&gt;&lt;span style=&quot;color: #4ec9b0&quot;&gt;JAML&lt;/span&gt;&lt;/div&gt;&lt;/div&gt;&#10;&#10;" style="rounded=0;whiteSpace=wrap;html=1;" parent="jpNuJnCxyzQhbMyTNRLn-1" vertex="1">
                    &#xa;                    &#xa;&#xa;
                    <mxGeometry x="1070" y="191" width="120" height="60" as="geometry"/>
                    &#xa;                    &#xa;&#xa;
                </mxCell>
                &#xa;                &#xa;&#xa;
                <mxCell id="R8_KcSkiHCYfyLnMajHr-8" value="&#10;&#10;&lt;div style=&quot;color: rgb(212, 212, 212); background-color: rgb(30, 30, 30); font-family: consolas, &amp;quot;courier new&amp;quot;, monospace; font-weight: normal; font-size: 14px; line-height: 19px;&quot;&gt;&lt;div&gt;&lt;span style=&quot;color: #dcdcaa&quot;&gt;load&lt;/span&gt;&lt;/div&gt;&lt;/div&gt;&#10;&#10;" style="rounded=1;whiteSpace=wrap;html=1;" parent="jpNuJnCxyzQhbMyTNRLn-1" vertex="1">
                    &#xa;                    &#xa;&#xa;
                    <mxGeometry x="880" y="30" width="120" height="40" as="geometry"/>
                    &#xa;                    &#xa;&#xa;
                </mxCell>
                &#xa;                &#xa;&#xa;
                <mxCell id="R8_KcSkiHCYfyLnMajHr-9" value="&#10;&#10;&lt;div style=&quot;color: rgb(212, 212, 212); background-color: rgb(30, 30, 30); font-family: consolas, &amp;quot;courier new&amp;quot;, monospace; font-weight: normal; font-size: 14px; line-height: 19px;&quot;&gt;&lt;div&gt;&lt;span style=&quot;color: #dcdcaa&quot;&gt;escape&lt;/span&gt;&lt;/div&gt;&lt;/div&gt;&#10;&#10;" style="rounded=1;whiteSpace=wrap;html=1;" parent="jpNuJnCxyzQhbMyTNRLn-1" vertex="1">
                    &#xa;                    &#xa;&#xa;
                    <mxGeometry x="880" y="80" width="120" height="40" as="geometry"/>
                    &#xa;                    &#xa;&#xa;
                </mxCell>
                &#xa;                &#xa;&#xa;
                <mxCell id="R8_KcSkiHCYfyLnMajHr-10" value="&#10;&#10;&lt;div style=&quot;color: rgb(212, 212, 212); background-color: rgb(30, 30, 30); font-family: consolas, &amp;quot;courier new&amp;quot;, monospace; font-weight: normal; font-size: 14px; line-height: 19px;&quot;&gt;&lt;div&gt;&lt;span style=&quot;color: #dcdcaa&quot;&gt;unescape&lt;/span&gt;&lt;/div&gt;&lt;/div&gt;&#10;&#10;" style="rounded=1;whiteSpace=wrap;html=1;" parent="jpNuJnCxyzQhbMyTNRLn-1" vertex="1">
                    &#xa;                    &#xa;&#xa;
                    <mxGeometry x="880" y="130" width="120" height="40" as="geometry"/>
                    &#xa;                    &#xa;&#xa;
                </mxCell>
                &#xa;                &#xa;&#xa;
                <mxCell id="R8_KcSkiHCYfyLnMajHr-11" value="&#10;&#10;&lt;div style=&quot;color: rgb(212, 212, 212); background-color: rgb(30, 30, 30); font-family: consolas, &amp;quot;courier new&amp;quot;, monospace; font-weight: normal; font-size: 14px; line-height: 19px;&quot;&gt;&lt;div&gt;&lt;span style=&quot;color: #dcdcaa&quot;&gt;registered_tags&lt;/span&gt;&lt;/div&gt;&lt;/div&gt;&#10;&#10;" style="rounded=1;whiteSpace=wrap;html=1;" parent="jpNuJnCxyzQhbMyTNRLn-1" vertex="1">
                    &#xa;                    &#xa;&#xa;
                    <mxGeometry x="880" y="180" width="120" height="40" as="geometry"/>
                    &#xa;                    &#xa;&#xa;
                </mxCell>
                &#xa;                &#xa;&#xa;
                <mxCell id="R8_KcSkiHCYfyLnMajHr-12" value="&#10;&#10;&lt;div style=&quot;color: rgb(212, 212, 212); background-color: rgb(30, 30, 30); font-family: consolas, &amp;quot;courier new&amp;quot;, monospace; font-weight: normal; font-size: 14px; line-height: 19px;&quot;&gt;&lt;div&gt;&lt;span style=&quot;color: #dcdcaa&quot;&gt;load_no_tags&lt;/span&gt;&lt;/div&gt;&lt;/div&gt;&#10;&#10;" style="rounded=1;whiteSpace=wrap;html=1;" parent="jpNuJnCxyzQhbMyTNRLn-1" vertex="1">
                    &#xa;                    &#xa;&#xa;
                    <mxGeometry x="880" y="230" width="120" height="40" as="geometry"/>
                    &#xa;                    &#xa;&#xa;
                </mxCell>
                &#xa;                &#xa;&#xa;
                <mxCell id="R8_KcSkiHCYfyLnMajHr-13" value="&#10;&#10;&lt;div style=&quot;color: rgb(212, 212, 212); background-color: rgb(30, 30, 30); font-family: consolas, &amp;quot;courier new&amp;quot;, monospace; font-weight: normal; font-size: 14px; line-height: 19px;&quot;&gt;&lt;div&gt;&lt;span style=&quot;color: #dcdcaa&quot;&gt;expand_dict&lt;/span&gt;&lt;/div&gt;&lt;/div&gt;&#10;&#10;" style="rounded=1;whiteSpace=wrap;html=1;" parent="jpNuJnCxyzQhbMyTNRLn-1" vertex="1">
                    &#xa;                    &#xa;&#xa;
                    <mxGeometry x="880" y="280" width="120" height="40" as="geometry"/>
                    &#xa;                    &#xa;&#xa;
                </mxCell>
                &#xa;                &#xa;&#xa;
                <mxCell id="R8_KcSkiHCYfyLnMajHr-14" value="&#10;&#10;&lt;div style=&quot;color: rgb(212, 212, 212); background-color: rgb(30, 30, 30); font-family: consolas, &amp;quot;courier new&amp;quot;, monospace; font-weight: normal; font-size: 14px; line-height: 19px;&quot;&gt;&lt;div&gt;&lt;span style=&quot;color: #dcdcaa&quot;&gt;dump&lt;/span&gt;&lt;/div&gt;&lt;/div&gt;&#10;&#10;" style="rounded=1;whiteSpace=wrap;html=1;" parent="jpNuJnCxyzQhbMyTNRLn-1" vertex="1">
                    &#xa;                    &#xa;&#xa;
                    <mxGeometry x="880" y="330" width="120" height="40" as="geometry"/>
                    &#xa;                    &#xa;&#xa;
                </mxCell>
                &#xa;                &#xa;&#xa;
                <mxCell id="R8_KcSkiHCYfyLnMajHr-15" value="&#10;&#10;&lt;div style=&quot;color: rgb(212, 212, 212); background-color: rgb(30, 30, 30); font-family: consolas, &amp;quot;courier new&amp;quot;, monospace; font-weight: normal; font-size: 14px; line-height: 19px;&quot;&gt;&lt;div&gt;&lt;span style=&quot;color: #dcdcaa&quot;&gt;register&lt;/span&gt;&lt;/div&gt;&lt;/div&gt;&#10;&#10;" style="rounded=1;whiteSpace=wrap;html=1;" parent="jpNuJnCxyzQhbMyTNRLn-1" vertex="1">
                    &#xa;                    &#xa;&#xa;
                    <mxGeometry x="880" y="380" width="120" height="40" as="geometry"/>
                    &#xa;                    &#xa;&#xa;
                </mxCell>
                &#xa;                &#xa;&#xa;
                <mxCell id="R8_KcSkiHCYfyLnMajHr-29" value="" style="endArrow=none;dashed=1;html=1;entryX=0;entryY=0.5;entryDx=0;entryDy=0;exitX=1;exitY=0.5;exitDx=0;exitDy=0;" parent="jpNuJnCxyzQhbMyTNRLn-1" source="R8_KcSkiHCYfyLnMajHr-3" target="R8_KcSkiHCYfyLnMajHr-12" edge="1">
                    &#xa;                    &#xa;&#xa;
                    <mxGeometry width="50" height="50" relative="1" as="geometry">
                        &#xa;                        &#xa;&#xa;
                        <mxPoint x="730" y="250" as="sourcePoint"/>
                        &#xa;                        &#xa;&#xa;
                        <mxPoint x="780" y="200" as="targetPoint"/>
                        &#xa;                        &#xa;&#xa;
                    </mxGeometry>
                    &#xa;                    &#xa;&#xa;
                </mxCell>
                &#xa;                &#xa;&#xa;
                <mxCell id="R8_KcSkiHCYfyLnMajHr-30" value="" style="endArrow=none;dashed=1;html=1;entryX=0;entryY=0.5;entryDx=0;entryDy=0;exitX=1;exitY=0.5;exitDx=0;exitDy=0;" parent="jpNuJnCxyzQhbMyTNRLn-1" source="R8_KcSkiHCYfyLnMajHr-3" target="R8_KcSkiHCYfyLnMajHr-13" edge="1">
                    &#xa;                    &#xa;&#xa;
                    <mxGeometry width="50" height="50" relative="1" as="geometry">
                        &#xa;                        &#xa;&#xa;
                        <mxPoint x="730" y="250" as="sourcePoint"/>
                        &#xa;                        &#xa;&#xa;
                        <mxPoint x="780" y="200" as="targetPoint"/>
                        &#xa;                        &#xa;&#xa;
                    </mxGeometry>
                    &#xa;                    &#xa;&#xa;
                </mxCell>
                &#xa;                &#xa;&#xa;
                <mxCell id="R8_KcSkiHCYfyLnMajHr-31" value="" style="endArrow=none;dashed=1;html=1;exitX=1;exitY=0.5;exitDx=0;exitDy=0;entryX=0;entryY=0.5;entryDx=0;entryDy=0;" parent="jpNuJnCxyzQhbMyTNRLn-1" source="R8_KcSkiHCYfyLnMajHr-3" edge="1" target="R8_KcSkiHCYfyLnMajHr-10">
                    &#xa;                    &#xa;&#xa;
                    <mxGeometry width="50" height="50" relative="1" as="geometry">
                        &#xa;                        &#xa;&#xa;
                        <mxPoint x="780" y="210" as="sourcePoint"/>
                        &#xa;                        &#xa;&#xa;
                        <mxPoint x="830" y="160" as="targetPoint"/>
                        &#xa;                        &#xa;&#xa;
                    </mxGeometry>
                    &#xa;                    &#xa;&#xa;
                </mxCell>
                &#xa;                &#xa;&#xa;
                <mxCell id="R8_KcSkiHCYfyLnMajHr-32" value="①" style="text;html=1;strokeColor=none;fillColor=none;align=center;verticalAlign=middle;whiteSpace=wrap;rounded=0;" parent="jpNuJnCxyzQhbMyTNRLn-1" vertex="1">
                    &#xa;                    &#xa;&#xa;
                    <mxGeometry x="790" y="230" width="40" height="20" as="geometry"/>
                    &#xa;                    &#xa;&#xa;
                </mxCell>
                &#xa;                &#xa;&#xa;
                <mxCell id="R8_KcSkiHCYfyLnMajHr-33" value="②" style="text;html=1;strokeColor=none;fillColor=none;align=center;verticalAlign=middle;whiteSpace=wrap;rounded=0;" parent="jpNuJnCxyzQhbMyTNRLn-1" vertex="1">
                    &#xa;                    &#xa;&#xa;
                    <mxGeometry x="790" y="270" width="40" height="20" as="geometry"/>
                    &#xa;                    &#xa;&#xa;
                </mxCell>
                &#xa;                &#xa;&#xa;
                <mxCell id="R8_KcSkiHCYfyLnMajHr-34" value="③" style="text;html=1;strokeColor=none;fillColor=none;align=center;verticalAlign=middle;whiteSpace=wrap;rounded=0;" parent="jpNuJnCxyzQhbMyTNRLn-1" vertex="1">
                    &#xa;                    &#xa;&#xa;
                    <mxGeometry x="790" y="165" width="40" height="20" as="geometry"/>
                    &#xa;                    &#xa;&#xa;
                </mxCell>
                &#xa;                &#xa;&#xa;
            </root>
            &#xa;            &#xa;&#xa;
        </mxGraphModel>
        &#xa;        &#xa;&#xa;
    </diagram>
    <diagram id="mlEQeBcQVLzr49Sg4oMQ" name="Executor">
        &#xa;
        <mxGraphModel dx="1861" dy="707" grid="1" gridSize="10" guides="1" tooltips="1" connect="1" arrows="1" fold="1" page="1" pageScale="1" pageWidth="850" pageHeight="1100" math="0" shadow="0">
            &#xa;
            <root>
                &#xa;
                <mxCell id="fwP-yqPuGjiSRpqILrdj-0"/>
                &#xa;
                <mxCell id="fwP-yqPuGjiSRpqILrdj-1" parent="fwP-yqPuGjiSRpqILrdj-0"/>
                &#xa;
                <mxCell id="LM6Jvgxt0WtBsK4SbuNm-5" style="edgeStyle=orthogonalEdgeStyle;rounded=0;orthogonalLoop=1;jettySize=auto;html=1;entryX=0.5;entryY=1;entryDx=0;entryDy=0;" parent="fwP-yqPuGjiSRpqILrdj-1" source="LM6Jvgxt0WtBsK4SbuNm-1" target="LM6Jvgxt0WtBsK4SbuNm-2" edge="1">
                    &#xa;
                    <mxGeometry relative="1" as="geometry"/>
                    &#xa;
                </mxCell>
                &#xa;
                <mxCell id="LM6Jvgxt0WtBsK4SbuNm-6" style="edgeStyle=orthogonalEdgeStyle;rounded=0;orthogonalLoop=1;jettySize=auto;html=1;entryX=0.5;entryY=1;entryDx=0;entryDy=0;" parent="fwP-yqPuGjiSRpqILrdj-1" source="LM6Jvgxt0WtBsK4SbuNm-1" target="LM6Jvgxt0WtBsK4SbuNm-3" edge="1">
                    &#xa;
                    <mxGeometry relative="1" as="geometry"/>
                    &#xa;
                </mxCell>
                &#xa;
                <mxCell id="LM6Jvgxt0WtBsK4SbuNm-1" value="&lt;meta charset=&quot;utf-8&quot;&gt;&lt;div style=&quot;color: rgb(212, 212, 212); background-color: rgb(30, 30, 30); font-family: &amp;quot;droid sans mono&amp;quot;, monospace, monospace, &amp;quot;droid sans fallback&amp;quot;; font-weight: normal; font-size: 14px; line-height: 19px;&quot;&gt;&lt;div&gt;&lt;span style=&quot;color: #4ec9b0&quot;&gt;BaseExecutor&lt;/span&gt;&lt;/div&gt;&lt;/div&gt;" style="rounded=0;whiteSpace=wrap;html=1;" parent="fwP-yqPuGjiSRpqILrdj-1" vertex="1">
                    &#xa;
                    <mxGeometry x="357" y="420" width="120" height="60" as="geometry"/>
                    &#xa;
                </mxCell>
                &#xa;
                <mxCell id="v8UeSbQyoF6Ido7-7BI0-10" style="edgeStyle=orthogonalEdgeStyle;rounded=0;orthogonalLoop=1;jettySize=auto;html=1;entryX=0.576;entryY=1.017;entryDx=0;entryDy=0;entryPerimeter=0;" parent="fwP-yqPuGjiSRpqILrdj-1" source="LM6Jvgxt0WtBsK4SbuNm-2" target="v8UeSbQyoF6Ido7-7BI0-0" edge="1">
                    &#xa;
                    <mxGeometry relative="1" as="geometry"/>
                    &#xa;
                </mxCell>
                &#xa;
                <mxCell id="LM6Jvgxt0WtBsK4SbuNm-2" value="&lt;meta charset=&quot;utf-8&quot;&gt;&lt;div style=&quot;color: rgb(212, 212, 212); background-color: rgb(30, 30, 30); font-family: &amp;quot;droid sans mono&amp;quot;, monospace, monospace, &amp;quot;droid sans fallback&amp;quot;; font-weight: normal; font-size: 14px; line-height: 19px;&quot;&gt;&lt;div&gt;&lt;span style=&quot;color: #4ec9b0&quot;&gt;JAMLCompatible&lt;/span&gt;&lt;/div&gt;&lt;/div&gt;" style="rounded=0;whiteSpace=wrap;html=1;" parent="fwP-yqPuGjiSRpqILrdj-1" vertex="1">
                    &#xa;
                    <mxGeometry x="487" y="290" width="120" height="60" as="geometry"/>
                    &#xa;
                </mxCell>
                &#xa;
                <mxCell id="v8UeSbQyoF6Ido7-7BI0-9" style="edgeStyle=orthogonalEdgeStyle;rounded=0;orthogonalLoop=1;jettySize=auto;html=1;entryX=0;entryY=0.5;entryDx=0;entryDy=0;" parent="fwP-yqPuGjiSRpqILrdj-1" source="LM6Jvgxt0WtBsK4SbuNm-3" target="v8UeSbQyoF6Ido7-7BI0-0" edge="1">
                    &#xa;
                    <mxGeometry relative="1" as="geometry"/>
                    &#xa;
                </mxCell>
                &#xa;
                <mxCell id="v8UeSbQyoF6Ido7-7BI0-17" style="edgeStyle=orthogonalEdgeStyle;rounded=0;orthogonalLoop=1;jettySize=auto;html=1;entryX=0.714;entryY=0.5;entryDx=0;entryDy=0;entryPerimeter=0;" parent="fwP-yqPuGjiSRpqILrdj-1" source="LM6Jvgxt0WtBsK4SbuNm-3" target="v8UeSbQyoF6Ido7-7BI0-14" edge="1">
                    &#xa;
                    <mxGeometry relative="1" as="geometry"/>
                    &#xa;
                </mxCell>
                &#xa;
                <mxCell id="LM6Jvgxt0WtBsK4SbuNm-3" value="&lt;meta charset=&quot;utf-8&quot;&gt;&lt;div style=&quot;color: rgb(212, 212, 212); background-color: rgb(30, 30, 30); font-family: &amp;quot;droid sans mono&amp;quot;, monospace, monospace, &amp;quot;droid sans fallback&amp;quot;; font-weight: normal; font-size: 14px; line-height: 19px;&quot;&gt;&lt;div&gt;&lt;span style=&quot;color: #4ec9b0&quot;&gt;ExecutorType&lt;/span&gt;&lt;/div&gt;&lt;/div&gt;" style="rounded=0;whiteSpace=wrap;html=1;" parent="fwP-yqPuGjiSRpqILrdj-1" vertex="1">
                    &#xa;
                    <mxGeometry x="257" y="290" width="120" height="60" as="geometry"/>
                    &#xa;
                </mxCell>
                &#xa;
                <mxCell id="LM6Jvgxt0WtBsK4SbuNm-4" value="&lt;meta charset=&quot;utf-8&quot;&gt;&lt;div style=&quot;color: rgb(212, 212, 212); background-color: rgb(30, 30, 30); font-family: &amp;quot;droid sans mono&amp;quot;, monospace, monospace, &amp;quot;droid sans fallback&amp;quot;; font-weight: normal; font-size: 14px; line-height: 19px;&quot;&gt;&lt;div&gt;&lt;span style=&quot;color: #4ec9b0&quot;&gt;metaclass&lt;/span&gt;&lt;/div&gt;&lt;/div&gt;" style="text;whiteSpace=wrap;html=1;" parent="fwP-yqPuGjiSRpqILrdj-1" vertex="1">
                    &#xa;
                    <mxGeometry x="487" y="410" width="100" height="30" as="geometry"/>
                    &#xa;
                </mxCell>
                &#xa;
                <mxCell id="LM6Jvgxt0WtBsK4SbuNm-8" value="&lt;div style=&quot;color: rgb(212 , 212 , 212) ; background-color: rgb(30 , 30 , 30) ; font-family: &amp;#34;droid sans mono&amp;#34; , monospace , monospace , &amp;#34;droid sans fallback&amp;#34; ; font-weight: normal ; font-size: 14px ; line-height: 19px&quot;&gt;&lt;div&gt;&lt;span style=&quot;color: #ce9178&quot;&gt;inherit&lt;/span&gt;&lt;/div&gt;&lt;/div&gt;" style="text;whiteSpace=wrap;html=1;" parent="fwP-yqPuGjiSRpqILrdj-1" vertex="1">
                    &#xa;
                    <mxGeometry x="317" y="360" width="100" height="30" as="geometry"/>
                    &#xa;
                </mxCell>
                &#xa;
                <mxCell id="v8UeSbQyoF6Ido7-7BI0-0" value="&lt;meta charset=&quot;utf-8&quot;&gt;&lt;div style=&quot;color: rgb(212, 212, 212); background-color: rgb(30, 30, 30); font-family: &amp;quot;droid sans mono&amp;quot;, monospace, monospace, &amp;quot;droid sans fallback&amp;quot;; font-weight: normal; font-size: 14px; line-height: 19px;&quot;&gt;&lt;div&gt;&lt;span style=&quot;color: #4ec9b0&quot;&gt;JAMLCompatibleType&lt;/span&gt;&lt;/div&gt;&lt;/div&gt;" style="rounded=0;whiteSpace=wrap;html=1;" parent="fwP-yqPuGjiSRpqILrdj-1" vertex="1">
                    &#xa;
                    <mxGeometry x="450" y="150" width="170" height="60" as="geometry"/>
                    &#xa;
                </mxCell>
                &#xa;
                <mxCell id="v8UeSbQyoF6Ido7-7BI0-2" style="edgeStyle=orthogonalEdgeStyle;rounded=0;orthogonalLoop=1;jettySize=auto;html=1;entryX=0.5;entryY=1;entryDx=0;entryDy=0;" parent="fwP-yqPuGjiSRpqILrdj-1" source="v8UeSbQyoF6Ido7-7BI0-1" target="LM6Jvgxt0WtBsK4SbuNm-1" edge="1">
                    &#xa;
                    <mxGeometry relative="1" as="geometry"/>
                    &#xa;
                </mxCell>
                &#xa;
                <mxCell id="v8UeSbQyoF6Ido7-7BI0-1" value="&lt;div style=&quot;color: rgb(212 , 212 , 212) ; background-color: rgb(30 , 30 , 30) ; font-family: &amp;#34;droid sans mono&amp;#34; , monospace , monospace , &amp;#34;droid sans fallback&amp;#34; ; font-weight: normal ; font-size: 14px ; line-height: 19px&quot;&gt;&lt;div&gt;&lt;span style=&quot;color: #4ec9b0&quot;&gt;MyExecutor&lt;/span&gt;&lt;/div&gt;&lt;/div&gt;" style="rounded=0;whiteSpace=wrap;html=1;" parent="fwP-yqPuGjiSRpqILrdj-1" vertex="1">
                    &#xa;
                    <mxGeometry x="357" y="540" width="120" height="60" as="geometry"/>
                    &#xa;
                </mxCell>
                &#xa;
                <mxCell id="v8UeSbQyoF6Ido7-7BI0-3" value="&lt;div style=&quot;color: rgb(212 , 212 , 212) ; background-color: rgb(30 , 30 , 30) ; font-family: &amp;#34;droid sans mono&amp;#34; , monospace , monospace , &amp;#34;droid sans fallback&amp;#34; ; font-weight: normal ; font-size: 14px ; line-height: 19px&quot;&gt;&lt;div&gt;&lt;span style=&quot;color: #ce9178&quot;&gt;inherit&lt;/span&gt;&lt;/div&gt;&lt;/div&gt;" style="text;whiteSpace=wrap;html=1;" parent="fwP-yqPuGjiSRpqILrdj-1" vertex="1">
                    &#xa;
                    <mxGeometry x="397" y="500" width="100" height="30" as="geometry"/>
                    &#xa;
                </mxCell>
                &#xa;
                <mxCell id="v8UeSbQyoF6Ido7-7BI0-7" value="&lt;meta charset=&quot;utf-8&quot;&gt;&lt;div style=&quot;color: rgb(212, 212, 212); background-color: rgb(30, 30, 30); font-family: &amp;quot;droid sans mono&amp;quot;, monospace, monospace, &amp;quot;droid sans fallback&amp;quot;; font-weight: normal; font-size: 14px; line-height: 19px;&quot;&gt;&lt;div&gt;&lt;span style=&quot;color: #4ec9b0&quot;&gt;metaclass&lt;/span&gt;&lt;/div&gt;&lt;/div&gt;" style="text;whiteSpace=wrap;html=1;" parent="fwP-yqPuGjiSRpqILrdj-1" vertex="1">
                    &#xa;
                    <mxGeometry x="507" y="237" width="100" height="30" as="geometry"/>
                    &#xa;
                </mxCell>
                &#xa;
                <mxCell id="v8UeSbQyoF6Ido7-7BI0-14" value="&lt;meta charset=&quot;utf-8&quot;&gt;&lt;div style=&quot;color: rgb(212, 212, 212); background-color: rgb(30, 30, 30); font-family: &amp;quot;droid sans mono&amp;quot;, monospace, monospace, &amp;quot;droid sans fallback&amp;quot;; font-weight: normal; font-size: 14px; line-height: 19px;&quot;&gt;&lt;div&gt;&lt;span style=&quot;color: #dcdcaa&quot;&gt;register_class&lt;/span&gt;&lt;/div&gt;&lt;/div&gt;" style="text;whiteSpace=wrap;html=1;" parent="fwP-yqPuGjiSRpqILrdj-1" vertex="1">
                    &#xa;
                    <mxGeometry x="90" y="305" width="140" height="30" as="geometry"/>
                    &#xa;
                </mxCell>
                &#xa;
                <mxCell id="v8UeSbQyoF6Ido7-7BI0-33" value="" style="group" parent="fwP-yqPuGjiSRpqILrdj-1" vertex="1" connectable="0">
                    &#xa;
                    <mxGeometry x="637" y="252" width="145" height="136" as="geometry"/>
                    &#xa;
                </mxCell>
                &#xa;
                <mxCell id="v8UeSbQyoF6Ido7-7BI0-25" value="" style="rounded=0;whiteSpace=wrap;html=1;" parent="v8UeSbQyoF6Ido7-7BI0-33" vertex="1">
                    &#xa;
                    <mxGeometry width="125" height="136" as="geometry"/>
                    &#xa;
                </mxCell>
                &#xa;
                <mxCell id="v8UeSbQyoF6Ido7-7BI0-18" value="&lt;meta charset=&quot;utf-8&quot;&gt;&lt;div style=&quot;color: rgb(212, 212, 212); background-color: rgb(30, 30, 30); font-family: &amp;quot;droid sans mono&amp;quot;, monospace, monospace, &amp;quot;droid sans fallback&amp;quot;; font-weight: normal; font-size: 14px; line-height: 19px;&quot;&gt;&lt;div&gt;&lt;span style=&quot;color: #dcdcaa&quot;&gt;_to_yaml&lt;/span&gt;&lt;/div&gt;&lt;/div&gt;" style="text;whiteSpace=wrap;html=1;flipH=1;" parent="v8UeSbQyoF6Ido7-7BI0-33" vertex="1">
                    &#xa;
                    <mxGeometry x="5" y="2" width="90" height="30" as="geometry"/>
                    &#xa;
                </mxCell>
                &#xa;
                <mxCell id="v8UeSbQyoF6Ido7-7BI0-19" value="&lt;meta charset=&quot;utf-8&quot;&gt;&lt;div style=&quot;color: rgb(212, 212, 212); background-color: rgb(30, 30, 30); font-family: &amp;quot;droid sans mono&amp;quot;, monospace, monospace, &amp;quot;droid sans fallback&amp;quot;; font-weight: normal; font-size: 14px; line-height: 19px;&quot;&gt;&lt;div&gt;&lt;span style=&quot;color: #dcdcaa&quot;&gt;_from_yaml&lt;/span&gt;&lt;/div&gt;&lt;/div&gt;" style="text;whiteSpace=wrap;html=1;flipH=1;" parent="v8UeSbQyoF6Ido7-7BI0-33" vertex="1">
                    &#xa;
                    <mxGeometry x="5" y="30" width="110" height="30" as="geometry"/>
                    &#xa;
                </mxCell>
                &#xa;
                <mxCell id="v8UeSbQyoF6Ido7-7BI0-20" value="&lt;meta charset=&quot;utf-8&quot;&gt;&lt;div style=&quot;color: rgb(212, 212, 212); background-color: rgb(30, 30, 30); font-family: &amp;quot;droid sans mono&amp;quot;, monospace, monospace, &amp;quot;droid sans fallback&amp;quot;; font-weight: normal; font-size: 14px; line-height: 19px;&quot;&gt;&lt;div&gt;&lt;span style=&quot;color: #dcdcaa&quot;&gt;save_config&lt;/span&gt;&lt;/div&gt;&lt;/div&gt;" style="text;whiteSpace=wrap;html=1;flipH=1;" parent="v8UeSbQyoF6Ido7-7BI0-33" vertex="1">
                    &#xa;
                    <mxGeometry x="5" y="56" width="120" height="30" as="geometry"/>
                    &#xa;
                </mxCell>
                &#xa;
                <mxCell id="v8UeSbQyoF6Ido7-7BI0-21" value="&lt;meta charset=&quot;utf-8&quot;&gt;&lt;div style=&quot;color: rgb(212, 212, 212); background-color: rgb(30, 30, 30); font-family: &amp;quot;droid sans mono&amp;quot;, monospace, monospace, &amp;quot;droid sans fallback&amp;quot;; font-weight: normal; font-size: 14px; line-height: 19px;&quot;&gt;&lt;div&gt;&lt;span style=&quot;color: #dcdcaa&quot;&gt;load_config&lt;/span&gt;&lt;/div&gt;&lt;/div&gt;" style="text;whiteSpace=wrap;html=1;flipH=1;" parent="v8UeSbQyoF6Ido7-7BI0-33" vertex="1">
                    &#xa;
                    <mxGeometry x="5" y="79" width="120" height="30" as="geometry"/>
                    &#xa;
                </mxCell>
                &#xa;
                <mxCell id="v8UeSbQyoF6Ido7-7BI0-22" value="&lt;meta charset=&quot;utf-8&quot;&gt;&lt;div style=&quot;color: rgb(212, 212, 212); background-color: rgb(30, 30, 30); font-family: &amp;quot;droid sans mono&amp;quot;, monospace, monospace, &amp;quot;droid sans fallback&amp;quot;; font-weight: normal; font-size: 14px; line-height: 19px;&quot;&gt;&lt;div&gt;&lt;span style=&quot;color: #dcdcaa&quot;&gt;inject_config&lt;/span&gt;&lt;/div&gt;&lt;/div&gt;" style="text;whiteSpace=wrap;html=1;flipH=1;" parent="v8UeSbQyoF6Ido7-7BI0-33" vertex="1">
                    &#xa;
                    <mxGeometry x="5" y="102" width="140" height="30" as="geometry"/>
                    &#xa;
                </mxCell>
                &#xa;
                <mxCell id="v8UeSbQyoF6Ido7-7BI0-34" value="" style="shape=flexArrow;endArrow=classic;html=1;" parent="fwP-yqPuGjiSRpqILrdj-1" edge="1">
                    &#xa;
                    <mxGeometry width="50" height="50" relative="1" as="geometry">
                        &#xa;
                        <mxPoint x="607" y="319.5" as="sourcePoint"/>
                        &#xa;
                        <mxPoint x="637" y="319.5" as="targetPoint"/>
                        &#xa;
                    </mxGeometry>
                    &#xa;
                </mxCell>
                &#xa;
                <mxCell id="v8UeSbQyoF6Ido7-7BI0-35" value="&lt;meta charset=&quot;utf-8&quot;&gt;&lt;div style=&quot;color: rgb(212, 212, 212); background-color: rgb(30, 30, 30); font-family: &amp;quot;droid sans mono&amp;quot;, monospace, monospace, &amp;quot;droid sans fallback&amp;quot;; font-weight: normal; font-size: 14px; line-height: 19px;&quot;&gt;&lt;div&gt;&lt;span style=&quot;color: #4ec9b0&quot;&gt;JAML&lt;/span&gt;&lt;span style=&quot;color: #d4d4d4&quot;&gt;.&lt;/span&gt;&lt;span style=&quot;color: #dcdcaa&quot;&gt;register&lt;/span&gt;&lt;/div&gt;&lt;/div&gt;" style="text;whiteSpace=wrap;html=1;" parent="fwP-yqPuGjiSRpqILrdj-1" vertex="1">
                    &#xa;
                    <mxGeometry x="637" y="165" width="140" height="30" as="geometry"/>
                    &#xa;
                </mxCell>
                &#xa;
            </root>
            &#xa;
        </mxGraphModel>
        &#xa;
    </diagram>
</mxfile>